<mxfile host="app.diagrams.net" modified="2022-06-24T14:43:04.029Z" agent="5.0 (Windows NT 10.0; Win64; x64) AppleWebKit/537.36 (KHTML, like Gecko) Chrome/96.0.4664.45 Safari/537.36" etag="TBR3_I6DFsRntDXxPHRH" version="20.0.3" type="github">
  <diagram id="d1b2TJYHjpC8bM6dL9ag" name="第 1 页">
    <mxGraphModel dx="1203" dy="671" grid="1" gridSize="10" guides="1" tooltips="1" connect="1" arrows="1" fold="1" page="1" pageScale="1" pageWidth="1169" pageHeight="1654" math="0" shadow="0">
      <root>
        <mxCell id="0" />
        <mxCell id="1" parent="0" />
        <mxCell id="DOh98CFtYALguDs7qSSj-1" value="用户" style="shape=umlActor;verticalLabelPosition=bottom;verticalAlign=top;html=1;" vertex="1" parent="1">
          <mxGeometry x="40" y="20" width="50" height="80" as="geometry" />
        </mxCell>
        <mxCell id="DOh98CFtYALguDs7qSSj-2" value="圈子" style="shape=umlBoundary;whiteSpace=wrap;html=1;" vertex="1" parent="1">
          <mxGeometry x="410" y="60" width="100" height="80" as="geometry" />
        </mxCell>
        <mxCell id="DOh98CFtYALguDs7qSSj-5" value="圈子信息" style="ellipse;shape=umlEntity;whiteSpace=wrap;html=1;" vertex="1" parent="1">
          <mxGeometry x="200" y="460" width="80" height="80" as="geometry" />
        </mxCell>
        <mxCell id="DOh98CFtYALguDs7qSSj-6" value="获取动态信息" style="ellipse;shape=umlControl;whiteSpace=wrap;html=1;" vertex="1" parent="1">
          <mxGeometry x="440" y="510" width="80" height="80" as="geometry" />
        </mxCell>
        <mxCell id="DOh98CFtYALguDs7qSSj-7" value="动态信息" style="ellipse;shape=umlEntity;whiteSpace=wrap;html=1;" vertex="1" parent="1">
          <mxGeometry x="640" y="470" width="80" height="80" as="geometry" />
        </mxCell>
        <mxCell id="DOh98CFtYALguDs7qSSj-8" value="获取点赞/评论/收藏数" style="ellipse;shape=umlControl;whiteSpace=wrap;html=1;" vertex="1" parent="1">
          <mxGeometry x="1010" y="500" width="80" height="80" as="geometry" />
        </mxCell>
        <mxCell id="DOh98CFtYALguDs7qSSj-9" value="&lt;span style=&quot;&quot;&gt;点赞/评论/收藏关系&lt;/span&gt;" style="ellipse;shape=umlEntity;whiteSpace=wrap;html=1;" vertex="1" parent="1">
          <mxGeometry x="860" y="220" width="80" height="80" as="geometry" />
        </mxCell>
        <mxCell id="DOh98CFtYALguDs7qSSj-10" value="点赞/评论/收藏" style="ellipse;shape=umlEntity;whiteSpace=wrap;html=1;" vertex="1" parent="1">
          <mxGeometry x="950" y="70" width="80" height="80" as="geometry" />
        </mxCell>
        <mxCell id="DOh98CFtYALguDs7qSSj-11" value="&lt;span style=&quot;&quot;&gt;逛圈子&lt;/span&gt;" style="ellipse;shape=umlControl;whiteSpace=wrap;html=1;" vertex="1" parent="1">
          <mxGeometry x="60" y="330" width="80" height="80" as="geometry" />
        </mxCell>
        <mxCell id="DOh98CFtYALguDs7qSSj-19" value="" style="endArrow=none;html=1;rounded=0;exitX=0.617;exitY=0.696;exitDx=0;exitDy=0;exitPerimeter=0;" edge="1" parent="1" source="DOh98CFtYALguDs7qSSj-1" target="DOh98CFtYALguDs7qSSj-2">
          <mxGeometry width="50" height="50" relative="1" as="geometry">
            <mxPoint x="520" y="370" as="sourcePoint" />
            <mxPoint x="570" y="320" as="targetPoint" />
          </mxGeometry>
        </mxCell>
        <mxCell id="DOh98CFtYALguDs7qSSj-20" value="" style="endArrow=none;html=1;rounded=0;" edge="1" parent="1" source="DOh98CFtYALguDs7qSSj-11" target="DOh98CFtYALguDs7qSSj-2">
          <mxGeometry width="50" height="50" relative="1" as="geometry">
            <mxPoint x="250" y="150" as="sourcePoint" />
            <mxPoint x="420" y="106.87524090967497" as="targetPoint" />
          </mxGeometry>
        </mxCell>
        <mxCell id="DOh98CFtYALguDs7qSSj-21" value="" style="endArrow=none;html=1;rounded=0;exitX=0.5;exitY=0;exitDx=0;exitDy=0;" edge="1" parent="1" source="DOh98CFtYALguDs7qSSj-5" target="DOh98CFtYALguDs7qSSj-2">
          <mxGeometry width="50" height="50" relative="1" as="geometry">
            <mxPoint x="90.85000000000014" y="95.68000000000006" as="sourcePoint" />
            <mxPoint x="430" y="116.87524090967497" as="targetPoint" />
          </mxGeometry>
        </mxCell>
        <mxCell id="DOh98CFtYALguDs7qSSj-22" value="" style="endArrow=none;html=1;rounded=0;" edge="1" parent="1" source="DOh98CFtYALguDs7qSSj-6" target="DOh98CFtYALguDs7qSSj-2">
          <mxGeometry width="50" height="50" relative="1" as="geometry">
            <mxPoint x="100.85000000000014" y="105.68000000000006" as="sourcePoint" />
            <mxPoint x="440" y="126.87524090967497" as="targetPoint" />
          </mxGeometry>
        </mxCell>
        <mxCell id="DOh98CFtYALguDs7qSSj-23" value="" style="endArrow=none;html=1;rounded=0;entryX=0.885;entryY=0.914;entryDx=0;entryDy=0;entryPerimeter=0;" edge="1" parent="1" source="DOh98CFtYALguDs7qSSj-7" target="DOh98CFtYALguDs7qSSj-2">
          <mxGeometry width="50" height="50" relative="1" as="geometry">
            <mxPoint x="110.85000000000014" y="115.68000000000006" as="sourcePoint" />
            <mxPoint x="450" y="136.87524090967497" as="targetPoint" />
          </mxGeometry>
        </mxCell>
        <mxCell id="DOh98CFtYALguDs7qSSj-25" value="" style="endArrow=none;html=1;rounded=0;exitX=0.065;exitY=0.375;exitDx=0;exitDy=0;exitPerimeter=0;" edge="1" parent="1" source="DOh98CFtYALguDs7qSSj-9" target="DOh98CFtYALguDs7qSSj-2">
          <mxGeometry width="50" height="50" relative="1" as="geometry">
            <mxPoint x="130.85000000000014" y="135.68000000000006" as="sourcePoint" />
            <mxPoint x="470" y="156.87524090967497" as="targetPoint" />
          </mxGeometry>
        </mxCell>
        <mxCell id="DOh98CFtYALguDs7qSSj-26" value="" style="endArrow=none;html=1;rounded=0;exitX=0.017;exitY=0.343;exitDx=0;exitDy=0;exitPerimeter=0;" edge="1" parent="1" source="DOh98CFtYALguDs7qSSj-10" target="DOh98CFtYALguDs7qSSj-2">
          <mxGeometry width="50" height="50" relative="1" as="geometry">
            <mxPoint x="140.85000000000014" y="145.68000000000006" as="sourcePoint" />
            <mxPoint x="480" y="166.87524090967497" as="targetPoint" />
          </mxGeometry>
        </mxCell>
        <mxCell id="DOh98CFtYALguDs7qSSj-28" value="" style="shape=requiredInterface;html=1;verticalLabelPosition=bottom;sketch=0;direction=north;" vertex="1" parent="1">
          <mxGeometry x="420" y="5" width="60" height="65" as="geometry" />
        </mxCell>
        <mxCell id="DOh98CFtYALguDs7qSSj-29" value="" style="endArrow=open;endFill=1;endSize=12;html=1;rounded=0;" edge="1" parent="1">
          <mxGeometry width="160" relative="1" as="geometry">
            <mxPoint x="176" y="70" as="sourcePoint" />
            <mxPoint x="290" y="80" as="targetPoint" />
          </mxGeometry>
        </mxCell>
        <mxCell id="DOh98CFtYALguDs7qSSj-30" value="" style="endArrow=open;endFill=1;endSize=12;html=1;rounded=0;" edge="1" parent="1">
          <mxGeometry width="160" relative="1" as="geometry">
            <mxPoint x="260" y="200" as="sourcePoint" />
            <mxPoint x="170" y="268" as="targetPoint" />
          </mxGeometry>
        </mxCell>
        <mxCell id="DOh98CFtYALguDs7qSSj-31" value="" style="endArrow=none;html=1;rounded=0;" edge="1" parent="1" source="DOh98CFtYALguDs7qSSj-11" target="DOh98CFtYALguDs7qSSj-5">
          <mxGeometry width="50" height="50" relative="1" as="geometry">
            <mxPoint x="139.99946814442487" y="352.52862650708914" as="sourcePoint" />
            <mxPoint x="417.1" y="160.00222222222217" as="targetPoint" />
          </mxGeometry>
        </mxCell>
        <mxCell id="DOh98CFtYALguDs7qSSj-32" value="" style="endArrow=none;html=1;rounded=0;" edge="1" parent="1" source="DOh98CFtYALguDs7qSSj-5" target="DOh98CFtYALguDs7qSSj-6">
          <mxGeometry width="50" height="50" relative="1" as="geometry">
            <mxPoint x="152.89946814442487" y="347.24862650708917" as="sourcePoint" />
            <mxPoint x="430" y="154.72222222222217" as="targetPoint" />
          </mxGeometry>
        </mxCell>
        <mxCell id="DOh98CFtYALguDs7qSSj-33" value="" style="endArrow=none;html=1;rounded=0;" edge="1" parent="1" source="DOh98CFtYALguDs7qSSj-6" target="DOh98CFtYALguDs7qSSj-7">
          <mxGeometry width="50" height="50" relative="1" as="geometry">
            <mxPoint x="162.89946814442487" y="357.24862650708917" as="sourcePoint" />
            <mxPoint x="440" y="164.72222222222217" as="targetPoint" />
          </mxGeometry>
        </mxCell>
        <mxCell id="DOh98CFtYALguDs7qSSj-34" value="" style="endArrow=none;html=1;rounded=0;exitX=1;exitY=0;exitDx=0;exitDy=0;" edge="1" parent="1" source="DOh98CFtYALguDs7qSSj-7" target="DOh98CFtYALguDs7qSSj-8">
          <mxGeometry width="50" height="50" relative="1" as="geometry">
            <mxPoint x="172.89946814442487" y="367.24862650708917" as="sourcePoint" />
            <mxPoint x="450" y="174.72222222222217" as="targetPoint" />
          </mxGeometry>
        </mxCell>
        <mxCell id="DOh98CFtYALguDs7qSSj-35" value="" style="endArrow=none;html=1;rounded=0;" edge="1" parent="1" source="DOh98CFtYALguDs7qSSj-8" target="DOh98CFtYALguDs7qSSj-9">
          <mxGeometry width="50" height="50" relative="1" as="geometry">
            <mxPoint x="182.89946814442487" y="377.24862650708917" as="sourcePoint" />
            <mxPoint x="460" y="184.72222222222217" as="targetPoint" />
          </mxGeometry>
        </mxCell>
        <mxCell id="DOh98CFtYALguDs7qSSj-37" value="" style="endArrow=open;endFill=1;endSize=12;html=1;rounded=0;" edge="1" parent="1">
          <mxGeometry width="160" relative="1" as="geometry">
            <mxPoint x="130" y="430" as="sourcePoint" />
            <mxPoint x="180" y="480" as="targetPoint" />
          </mxGeometry>
        </mxCell>
        <mxCell id="DOh98CFtYALguDs7qSSj-39" value="" style="endArrow=open;endFill=1;endSize=12;html=1;rounded=0;" edge="1" parent="1">
          <mxGeometry width="160" relative="1" as="geometry">
            <mxPoint x="290" y="540" as="sourcePoint" />
            <mxPoint x="400" y="560" as="targetPoint" />
          </mxGeometry>
        </mxCell>
        <mxCell id="DOh98CFtYALguDs7qSSj-40" value="" style="endArrow=open;endFill=1;endSize=12;html=1;rounded=0;" edge="1" parent="1">
          <mxGeometry width="160" relative="1" as="geometry">
            <mxPoint x="560" y="560" as="sourcePoint" />
            <mxPoint x="630" y="550" as="targetPoint" />
          </mxGeometry>
        </mxCell>
        <mxCell id="DOh98CFtYALguDs7qSSj-41" value="" style="endArrow=open;endFill=1;endSize=12;html=1;rounded=0;" edge="1" parent="1">
          <mxGeometry width="160" relative="1" as="geometry">
            <mxPoint x="770" y="520" as="sourcePoint" />
            <mxPoint x="900" y="550" as="targetPoint" />
          </mxGeometry>
        </mxCell>
        <mxCell id="DOh98CFtYALguDs7qSSj-42" value="" style="endArrow=open;endFill=1;endSize=12;html=1;rounded=0;" edge="1" parent="1">
          <mxGeometry width="160" relative="1" as="geometry">
            <mxPoint x="980" y="440" as="sourcePoint" />
            <mxPoint x="920" y="350" as="targetPoint" />
          </mxGeometry>
        </mxCell>
        <mxCell id="DOh98CFtYALguDs7qSSj-43" value="" style="endArrow=open;endFill=1;endSize=12;html=1;rounded=0;" edge="1" parent="1">
          <mxGeometry width="160" relative="1" as="geometry">
            <mxPoint x="630" y="80" as="sourcePoint" />
            <mxPoint x="840" y="80" as="targetPoint" />
          </mxGeometry>
        </mxCell>
        <mxCell id="DOh98CFtYALguDs7qSSj-45" value="" style="endArrow=none;html=1;rounded=0;exitX=0.645;exitY=0.234;exitDx=0;exitDy=0;exitPerimeter=0;entryX=1;entryY=1;entryDx=0;entryDy=0;" edge="1" parent="1" source="DOh98CFtYALguDs7qSSj-8" target="DOh98CFtYALguDs7qSSj-10">
          <mxGeometry width="50" height="50" relative="1" as="geometry">
            <mxPoint x="1041.1419339925455" y="514.7243235860558" as="sourcePoint" />
            <mxPoint x="928.8134618702279" y="305.2994851585727" as="targetPoint" />
          </mxGeometry>
        </mxCell>
        <mxCell id="DOh98CFtYALguDs7qSSj-46" value="" style="endArrow=open;endFill=1;endSize=12;html=1;rounded=0;" edge="1" parent="1">
          <mxGeometry width="160" relative="1" as="geometry">
            <mxPoint x="1050" y="220" as="sourcePoint" />
            <mxPoint x="1065" y="390" as="targetPoint" />
          </mxGeometry>
        </mxCell>
      </root>
    </mxGraphModel>
  </diagram>
</mxfile>
